<?xml version="1.0" standalone="no"?>
<!DOCTYPE svg PUBLIC "-//W3C//DTD SVG 20010904//EN"
 "http://www.w3.org/TR/2001/REC-SVG-20010904/DTD/svg10.dtd">
<svg version="1.0" xmlns="http://www.w3.org/2000/svg"
 width="50.000000pt" height="50.000000pt" viewBox="0 0 50.000000 50.000000"
 preserveAspectRatio="xMidYMid meet">
<metadata>
Created by potrace 1.16, written by Peter Selinger 2001-2019
</metadata>
<g transform="translate(0.000000,50.000000) scale(0.100000,-0.100000)"
fill="#000000" stroke="none">
<path d="M200 391 c0 -24 -6 -44 -17 -52 -23 -20 -43 -72 -37 -96 5 -19 13
-21 104 -21 91 0 99 2 104 21 6 24 -14 76 -37 96 -11 8 -17 28 -17 52 l0 39
-50 0 -50 0 0 -39z"/>
<path d="M146 59 c-11 -55 -3 -59 104 -59 107 0 115 4 104 59 l-6 29 -98 0
-98 0 -6 -29z"/>
</g>
</svg>
